<svg width="150" height="150" viewBox="0 0 150 150" fill="none" xmlns="http://www.w3.org/2000/svg">
<g id="Logo">
<g id="Clip path group">
<mask id="mask0_75_3495" style="mask-type:luminance" maskUnits="userSpaceOnUse" x="54" y="125" width="28" height="16">
<g id="273ef4da0a">
<path id="Vector" d="M54 125.2H81.6V140.8H54V125.2Z" fill="white"/>
</g>
</mask>
<g mask="url(#mask0_75_3495)">
<g id="Group">
<g id="Clip path group_2">
<mask id="mask1_75_3495" style="mask-type:luminance" maskUnits="userSpaceOnUse" x="23" y="49" width="59" height="101">
<g id="74de581916">
<path id="Vector_2" d="M53.4578 49.9766L81.4 140.566L51.2984 149.85L23.3578 59.2609L53.4578 49.9766Z" fill="white"/>
</g>
</mask>
<g mask="url(#mask1_75_3495)">
<g id="Group_2">
<g id="Clip path group_3">
<mask id="mask2_75_3495" style="mask-type:luminance" maskUnits="userSpaceOnUse" x="23" y="50" width="59" height="100">
<g id="2b99e89a2f">
<path id="Vector_3" d="M81.4406 140.696L53.4984 50.1064L23.3984 59.3908L51.3391 149.98L81.4406 140.696Z" fill="white"/>
</g>
</mask>
<g mask="url(#mask2_75_3495)">
<g id="Group_3">
<g id="Clip path group_4">
<mask id="mask3_75_3495" style="mask-type:luminance" maskUnits="userSpaceOnUse" x="23" y="50" width="59" height="100">
<g id="5645af2339">
<path id="Vector_4" d="M81.4406 140.696L53.4984 50.1064L23.3984 59.3908L51.3391 149.98L81.4406 140.696Z" fill="white"/>
</g>
</mask>
<g mask="url(#mask3_75_3495)">
<g id="Group_4">
<path id="Vector_5" d="M73.6437 133.631C77.8719 138.104 81.4172 140.711 81.4172 140.711C71.3156 138.04 61.9094 132.679 54.2687 125.456C61.9687 130.615 68.7844 132.769 73.6437 133.631Z" fill="#007EB2"/>
</g>
</g>
</g>
</g>
</g>
</g>
</g>
</g>
</g>
</g>
</g>
</g>
<g id="Clip path group_5">
<mask id="mask4_75_3495" style="mask-type:luminance" maskUnits="userSpaceOnUse" x="35" y="53" width="39" height="81">
<g id="69a3e1bb80">
<path id="Vector_6" d="M35.6 53.2002H74V134H35.6V53.2002Z" fill="white"/>
</g>
</mask>
<g mask="url(#mask4_75_3495)">
<g id="Group_5">
<g id="Clip path group_6">
<mask id="mask5_75_3495" style="mask-type:luminance" maskUnits="userSpaceOnUse" x="23" y="49" width="59" height="101">
<g id="c9ddf22544">
<path id="Vector_7" d="M53.4578 49.9766L81.4 140.566L51.2984 149.85L23.3578 59.2609L53.4578 49.9766Z" fill="white"/>
</g>
</mask>
<g mask="url(#mask5_75_3495)">
<g id="Group_6">
<g id="Clip path group_7">
<mask id="mask6_75_3495" style="mask-type:luminance" maskUnits="userSpaceOnUse" x="23" y="50" width="59" height="100">
<g id="d75a0c5bf0">
<path id="Vector_8" d="M81.4406 140.696L53.4984 50.1064L23.3984 59.3908L51.3391 149.98L81.4406 140.696Z" fill="white"/>
</g>
</mask>
<g mask="url(#mask6_75_3495)">
<g id="Group_7">
<g id="Clip path group_8">
<mask id="mask7_75_3495" style="mask-type:luminance" maskUnits="userSpaceOnUse" x="23" y="50" width="59" height="100">
<g id="1d971ee763">
<path id="Vector_9" d="M81.4406 140.696L53.4984 50.1064L23.3984 59.3908L51.3391 149.98L81.4406 140.696Z" fill="white"/>
</g>
</mask>
<g mask="url(#mask7_75_3495)">
<g id="Group_8">
<path id="Vector_10" d="M43.9328 53.442C45.4438 53.6858 45.7406 55.0998 45.6344 56.6279C45.6344 56.6279 42.5391 66.2858 43.0281 75.7076C43.486 84.5092 46.3266 93.6639 51.5766 93.1373C54.575 92.8358 54.4703 79.2514 54.4703 79.2514C55.4797 74.8545 61.4094 80.9108 59.7422 101.534C58.6578 114.947 66.9969 126.6 73.6438 133.631C68.7844 132.769 61.9688 130.615 54.2688 125.456C49.775 121.209 45.8922 116.32 42.8391 110.953C35.125 97.392 34.0985 81.3529 38.0719 66.4561C39.1094 62.567 40.4719 58.7717 42.1328 55.1061C42.7938 53.6498 43.1344 53.3139 43.9328 53.442Z" fill="#0092CD"/>
</g>
</g>
</g>
</g>
</g>
</g>
</g>
</g>
</g>
</g>
</g>
</g>
<g id="Clip path group_9">
<mask id="mask8_75_3495" style="mask-type:luminance" maskUnits="userSpaceOnUse" x="78" y="4" width="42" height="94">
<g id="e8039455b7">
<path id="Vector_11" d="M78 4.29492H120V97.1996H78V4.29492Z" fill="white"/>
</g>
</mask>
<g mask="url(#mask8_75_3495)">
<g id="Group_9">
<path id="Vector_12" d="M99.1328 48.4043C98.6781 46.2699 94.2328 28.1871 109.414 16.1746C109.414 16.1746 101.788 27.2387 102.83 39.5277C113.373 32.5465 120.013 20.5996 119.914 7.47305L119.892 4.3418L116.881 5.22148C95.9641 13.2074 88.8797 30.3918 90.6453 45.7121V45.7168C91.3047 54.034 93.4828 60.8856 93.2063 68.3856C92.5656 85.6965 78.2453 97.0356 78.2453 97.0356C108.061 81.7449 101.584 59.9418 99.1328 48.4043Z" fill="#80CC28"/>
</g>
</g>
</g>
<g id="Clip path group_10">
<mask id="mask9_75_3495" style="mask-type:luminance" maskUnits="userSpaceOnUse" x="59" y="36" width="24" height="100">
<g id="a635c7470e">
<path id="Vector_13" d="M59.2 36H82.8V135.695H59.2V36Z" fill="white"/>
</g>
</mask>
<g mask="url(#mask9_75_3495)">
<g id="Group_10">
<path id="Vector_14" d="M68.7047 49.9158C68.7047 49.9158 73.6953 62.3877 69.9625 74.1439C61.2203 65.0127 57.3875 51.8986 60.3844 39.1158L61.1 36.0674L63.8422 37.5893C82.4766 49.9861 85.5875 68.3064 80.4781 82.8611V82.8643H80.4766C77.9969 90.833 74.3563 97.0361 72.9688 104.41C69.7688 121.436 81.2281 135.65 81.2281 135.65C55.5266 114.167 66.6641 94.3283 71.6063 83.6174C72.5203 81.6346 80.8547 64.9783 68.7047 49.9158Z" fill="#80CC28"/>
</g>
</g>
</g>
<path id="Vector_15" d="M87.6031 28.947C86.1797 34.1064 80.8375 37.1376 75.6688 35.7173C70.5016 34.297 67.4641 28.9642 68.8875 23.8048C70.3094 18.6455 75.6531 15.6142 80.8203 17.0345C85.9891 18.4533 89.025 23.7876 87.6031 28.947Z" fill="#80CC28"/>
<g id="Clip path group_11">
<mask id="mask10_75_3495" style="mask-type:luminance" maskUnits="userSpaceOnUse" x="84" y="100" width="30" height="30">
<g id="894ee9db5c">
<path id="Vector_16" d="M84.5781 100H113.678V129.089H84.5781V100Z" fill="white"/>
</g>
</mask>
<g mask="url(#mask10_75_3495)">
<g id="Group_11">
<path id="Vector_17" fill-rule="evenodd" clip-rule="evenodd" d="M103.616 110.509C103.339 110.509 103.116 110.284 103.116 110.008V101.503C103.116 100.673 102.442 100 101.613 100H96.6016C95.7719 100 95.1001 100.673 95.1001 101.503V110.008C95.1001 110.284 94.8751 110.509 94.5985 110.509H86.0938C85.2626 110.509 84.5907 111.183 84.5907 112.012V117.022C84.5907 117.853 85.2626 118.525 86.0938 118.525H94.5985C94.8751 118.525 95.1001 118.75 95.1001 119.027V127.531C95.1001 128.361 95.7719 129.034 96.6016 129.034H101.613C102.442 129.034 103.116 128.361 103.116 127.531V119.027C103.116 118.75 103.339 118.525 103.616 118.525H112.122C112.952 118.525 113.624 117.853 113.624 117.022V112.012C113.624 111.183 112.952 110.509 112.122 110.509H103.616Z" fill="#50BCE8"/>
</g>
</g>
</g>
</g>
</svg>
